<svg id="svg" version="1.1" xmlns="http://www.w3.org/2000/svg" xmlns:xlink="http://www.w3.org/1999/xlink" width="400" height="400" viewBox="0, 0, 400,400"><g id="svgg"><path id="path0" d="M89.904 178.318 C 89.805 243.778,89.766 247.088,89.078 248.137 C 87.593 250.404,86.327 250.797,80.500 250.799 L 75.200 250.800 75.200 260.200 L 75.200 269.600 87.980 269.600 C 106.025 269.600,108.587 268.749,110.767 262.034 C 111.691 259.188,112.094 165.128,111.221 156.116 C 110.115 144.702,110.336 143.878,113.156 148.900 C 116.385 154.651,117.301 156.217,118.044 157.262 C 118.460 157.846,118.800 158.443,118.800 158.590 C 118.800 158.736,119.340 159.641,120.000 160.600 C 120.660 161.559,121.200 162.509,121.200 162.710 C 121.200 162.911,121.560 163.402,122.000 163.800 C 122.440 164.198,122.800 164.692,122.800 164.898 C 122.800 165.233,125.425 169.210,126.688 170.789 C 126.957 171.125,128.609 173.470,130.360 176.000 C 132.111 178.530,133.700 180.780,133.893 181.000 C 134.085 181.220,135.177 182.750,136.320 184.400 C 137.462 186.050,139.843 189.470,141.611 192.000 C 143.379 194.530,145.263 197.230,145.798 198.000 C 146.334 198.770,147.601 200.570,148.615 202.000 C 149.629 203.430,150.891 205.230,151.419 206.000 C 153.279 208.711,157.156 214.208,157.675 214.870 C 157.964 215.238,159.640 217.631,161.400 220.186 C 165.122 225.589,170.215 232.822,170.706 233.400 C 170.892 233.621,172.195 235.510,173.600 237.600 C 175.005 239.690,176.315 241.579,176.510 241.800 C 176.706 242.020,178.388 244.360,180.249 247.000 C 183.426 251.507,185.621 254.652,191.713 263.430 C 193.099 265.427,194.682 267.635,195.232 268.337 L 196.232 269.614 206.116 269.507 L 216.001 269.400 216.100 200.400 C 216.211 123.624,215.939 130.287,219.026 128.789 C 220.383 128.131,221.493 128.000,225.726 128.000 L 230.800 128.000 230.800 118.800 L 230.800 109.600 217.500 109.618 C 201.130 109.639,198.530 110.188,196.235 114.105 C 193.968 117.973,194.012 116.903,194.009 167.600 C 194.005 213.785,194.140 219.725,195.439 230.541 C 195.764 233.249,194.869 233.665,193.591 231.400 C 188.131 221.729,182.783 213.365,175.174 202.600 C 173.619 200.400,171.551 197.430,170.579 196.000 C 167.942 192.119,164.113 186.655,163.711 186.200 C 163.517 185.980,162.064 183.910,160.482 181.600 C 158.900 179.290,157.093 176.680,156.466 175.800 C 152.410 170.103,150.455 167.334,147.997 163.800 C 146.466 161.600,143.577 157.460,141.577 154.600 C 139.576 151.740,137.505 148.770,136.974 148.000 C 136.443 147.230,134.792 144.872,133.304 142.760 C 131.817 140.647,129.520 137.343,128.200 135.416 C 126.880 133.489,125.613 131.707,125.385 131.456 C 125.157 131.205,123.366 128.660,121.405 125.800 C 119.443 122.940,117.605 120.362,117.319 120.071 C 117.034 119.781,116.800 119.389,116.800 119.200 C 116.800 119.011,116.565 118.619,116.278 118.329 C 115.991 118.038,114.968 116.630,114.006 115.200 C 113.043 113.770,112.108 112.540,111.928 112.467 C 111.747 112.393,111.600 112.110,111.600 111.836 C 111.600 109.844,110.322 109.600,99.879 109.600 L 90.009 109.600 89.904 178.318 M240.591 123.693 C 240.486 123.972,240.356 131.040,240.301 139.400 L 240.200 154.600 232.600 154.800 L 225.000 155.000 225.000 163.400 L 225.000 171.800 232.400 172.000 L 239.800 172.200 240.029 204.200 C 240.155 221.800,240.386 236.740,240.543 237.400 C 240.699 238.060,241.023 239.590,241.263 240.800 C 245.047 259.873,260.928 270.794,284.200 270.328 L 290.600 270.200 290.713 261.600 C 290.861 250.354,291.285 251.372,286.518 251.532 C 280.838 251.722,275.888 250.562,271.800 248.081 C 269.833 246.888,265.600 242.813,265.600 242.113 C 265.600 241.831,265.451 241.600,265.268 241.600 C 264.984 241.600,263.895 239.414,262.778 236.600 C 261.384 233.089,261.193 228.391,261.297 200.133 L 261.400 172.200 275.000 172.000 L 288.600 171.800 288.600 163.400 L 288.600 155.000 274.905 154.895 L 261.209 154.790 261.105 139.095 L 261.000 123.400 250.890 123.293 C 243.017 123.210,240.738 123.298,240.591 123.693 " stroke="none" fill="#231c23" fill-rule="evenodd"></path><path id="path1" d="M0.000 200.000 L 0.000 400.000 200.000 400.000 L 400.000 400.000 400.000 200.000 L 400.000 0.000 200.000 0.000 L 0.000 0.000 0.000 200.000 M112.106 111.300 C 114.197 114.118,116.413 117.272,119.767 122.200 C 120.665 123.520,121.715 124.949,122.100 125.375 C 122.485 125.802,122.800 126.387,122.800 126.675 C 122.800 126.964,122.935 127.201,123.100 127.202 C 123.265 127.203,124.030 128.192,124.800 129.400 C 125.570 130.608,126.335 131.597,126.500 131.598 C 126.665 131.599,126.800 131.855,126.800 132.167 C 126.800 132.478,126.949 132.793,127.130 132.867 C 127.312 132.940,128.423 134.440,129.598 136.200 C 130.774 137.960,131.843 139.490,131.974 139.600 C 132.106 139.710,133.071 141.060,134.119 142.600 C 135.167 144.140,137.187 147.020,138.607 149.000 C 140.027 150.980,141.314 152.870,141.466 153.200 C 141.617 153.530,141.857 153.890,141.997 154.000 C 142.138 154.110,142.862 155.100,143.607 156.200 C 144.352 157.300,145.196 158.438,145.481 158.729 C 145.766 159.019,146.000 159.411,146.000 159.600 C 146.000 159.789,146.236 160.181,146.524 160.471 C 146.812 160.762,148.027 162.424,149.224 164.164 C 150.421 165.905,152.300 168.617,153.400 170.191 C 154.500 171.765,156.376 174.481,157.570 176.226 C 158.763 177.972,159.888 179.460,160.070 179.533 C 160.251 179.607,160.400 179.907,160.400 180.200 C 160.400 180.493,160.549 180.793,160.730 180.867 C 160.912 180.940,162.037 182.428,163.230 184.174 C 164.424 185.919,166.300 188.634,167.400 190.208 C 173.364 198.738,174.636 200.565,175.000 201.123 C 175.220 201.461,175.625 202.021,175.899 202.368 C 176.475 203.096,178.825 206.478,182.732 212.200 C 185.241 215.874,188.210 220.613,190.003 223.805 C 190.400 224.512,190.967 225.520,191.262 226.045 C 191.558 226.570,191.890 227.090,192.000 227.200 C 192.200 227.400,192.853 228.507,193.889 230.400 C 194.381 231.300,194.417 231.099,194.242 228.400 C 193.339 214.445,193.181 203.217,193.314 162.600 C 193.474 113.746,193.303 116.880,196.013 113.278 C 197.670 111.077,200.068 109.767,203.917 108.961 C 207.482 108.215,230.387 108.147,231.120 108.880 C 231.627 109.387,231.843 127.301,231.357 128.567 C 231.151 129.106,230.209 129.200,225.027 129.200 C 219.000 129.200,218.930 129.210,217.970 130.232 L 217.000 131.264 216.800 200.732 L 216.600 270.200 206.800 270.313 C 195.607 270.441,195.635 270.445,194.682 268.831 C 194.291 268.170,193.745 267.398,193.468 267.115 C 193.191 266.832,191.807 264.890,190.392 262.800 C 188.976 260.710,187.717 258.910,187.594 258.800 C 187.304 258.542,181.506 250.263,177.649 244.600 C 176.001 242.180,174.536 240.110,174.394 240.000 C 174.252 239.890,173.160 238.384,171.968 236.653 C 170.775 234.921,169.530 233.117,169.200 232.643 C 168.870 232.168,166.989 229.445,165.021 226.590 C 163.052 223.736,161.328 221.310,161.189 221.200 C 161.049 221.090,159.975 219.560,158.800 217.800 C 157.625 216.040,156.550 214.510,156.411 214.400 C 156.271 214.290,155.169 212.760,153.961 211.000 C 152.753 209.240,151.128 206.900,150.350 205.800 C 149.573 204.700,147.697 202.000,146.181 199.800 C 144.666 197.600,143.285 195.740,143.113 195.667 C 142.941 195.593,142.800 195.278,142.800 194.967 C 142.800 194.655,142.620 194.400,142.400 194.400 C 142.180 194.400,142.000 194.145,142.000 193.833 C 142.000 193.522,141.851 193.207,141.670 193.133 C 141.488 193.060,140.413 191.650,139.280 190.000 C 136.790 186.370,130.585 177.557,130.128 177.000 C 129.948 176.780,128.819 175.160,127.619 173.400 C 126.419 171.640,125.294 170.140,125.119 170.067 C 124.944 169.993,124.800 169.693,124.800 169.400 C 124.800 169.107,124.655 168.807,124.477 168.733 C 123.754 168.435,114.822 153.776,112.027 148.301 C 111.174 146.630,111.094 147.203,111.672 150.861 C 112.090 153.504,112.200 165.379,112.200 207.800 L 112.200 261.400 111.104 263.665 C 109.836 266.287,107.703 268.268,104.943 269.389 C 102.451 270.400,74.951 270.881,74.344 269.924 C 73.966 269.326,73.872 251.598,74.243 250.633 C 74.446 250.103,75.287 250.000,79.393 250.000 C 85.346 250.000,86.497 249.794,87.794 248.497 L 88.800 247.491 88.800 178.365 C 88.800 112.953,88.838 109.218,89.500 108.832 C 89.923 108.586,94.116 108.420,100.078 108.412 L 109.955 108.400 112.106 111.300 M261.905 138.300 L 262.009 154.000 275.391 154.000 C 288.211 154.000,288.789 154.032,289.186 154.774 C 289.628 155.600,289.768 170.334,289.348 171.900 L 289.107 172.800 275.553 172.800 L 262.000 172.800 262.000 201.100 C 262.001 230.567,262.074 232.054,263.749 236.844 C 266.989 246.110,275.803 251.319,287.200 250.705 C 289.070 250.604,290.825 250.600,291.100 250.694 C 292.056 251.024,291.794 270.268,290.826 270.786 C 290.386 271.022,287.326 271.199,283.726 271.198 C 260.617 271.193,245.683 261.225,240.880 242.600 C 240.653 241.720,240.239 240.280,239.960 239.400 C 239.575 238.187,239.397 229.959,239.226 205.400 L 239.000 173.000 231.600 172.800 L 224.200 172.600 224.092 163.801 C 223.959 152.987,223.093 154.000,232.476 154.000 L 239.600 154.000 239.600 138.467 C 239.600 129.923,239.723 122.811,239.873 122.660 C 240.023 122.510,245.018 122.435,250.973 122.494 L 261.800 122.600 261.905 138.300 M319.724 249.191 C 327.820 253.061,329.718 264.299,323.351 270.670 C 315.348 278.677,301.649 273.461,300.890 262.117 C 300.213 251.995,310.631 244.844,319.724 249.191 " stroke="none" fill="#f7f7f8" fill-rule="evenodd"></path><path id="path2" d="M310.600 248.867 C 296.440 253.638,299.189 273.759,314.000 273.759 C 325.593 273.759,331.035 260.134,322.716 251.936 C 319.784 249.046,314.238 247.642,310.600 248.867 " stroke="none" fill="#c11c47" fill-rule="evenodd"></path><path id="path3" d="M89.395 178.000 C 89.395 215.730,89.442 231.165,89.500 212.300 C 89.557 193.435,89.557 162.565,89.500 143.700 C 89.442 124.835,89.395 140.270,89.395 178.000 M225.600 128.400 L 220.200 128.636 225.476 128.718 C 228.654 128.767,230.851 128.641,231.000 128.400 C 231.136 128.180,231.192 128.037,231.124 128.082 C 231.056 128.127,228.570 128.270,225.600 128.400 M224.579 154.911 C 224.471 155.192,224.432 159.017,224.492 163.411 L 224.602 171.400 224.801 162.900 C 224.996 154.571,224.977 153.874,224.579 154.911 M288.967 163.200 C 288.967 167.490,289.026 169.245,289.098 167.100 C 289.170 164.955,289.170 161.445,289.098 159.300 C 289.026 157.155,288.967 158.910,288.967 163.200 M193.720 216.800 C 193.720 218.010,193.795 218.505,193.887 217.900 C 193.978 217.295,193.978 216.305,193.887 215.700 C 193.795 215.095,193.720 215.590,193.720 216.800 M290.799 260.519 L 290.999 270.200 291.107 260.828 C 291.166 255.673,291.077 251.316,290.908 251.147 C 290.738 250.977,290.690 255.195,290.799 260.519 M284.905 251.487 C 285.514 251.579,286.414 251.577,286.905 251.482 C 287.397 251.387,286.900 251.311,285.800 251.314 C 284.700 251.317,284.297 251.395,284.905 251.487 M250.200 259.200 C 251.283 260.300,252.260 261.200,252.370 261.200 C 252.480 261.200,251.683 260.300,250.600 259.200 C 249.517 258.100,248.540 257.200,248.430 257.200 C 248.320 257.200,249.117 258.100,250.200 259.200 M90.700 269.898 C 92.735 269.971,96.065 269.971,98.100 269.898 C 100.135 269.825,98.470 269.766,94.400 269.766 C 90.330 269.766,88.665 269.825,90.700 269.898 M201.723 269.899 C 204.541 269.968,209.041 269.968,211.723 269.899 C 214.405 269.830,212.100 269.773,206.600 269.773 C 201.100 269.774,198.905 269.830,201.723 269.899 M277.100 270.682 C 277.595 270.778,278.405 270.778,278.900 270.682 C 279.395 270.587,278.990 270.509,278.000 270.509 C 277.010 270.509,276.605 270.587,277.100 270.682 M287.900 270.682 C 288.395 270.778,289.205 270.778,289.700 270.682 C 290.195 270.587,289.790 270.509,288.800 270.509 C 287.810 270.509,287.405 270.587,287.900 270.682 " stroke="none" fill="#9c9a9a" fill-rule="evenodd"></path><path id="path4" d="M89.785 109.700 C 89.680 109.975,89.641 140.800,89.698 178.200 L 89.802 246.200 89.901 177.900 L 90.000 109.600 99.869 109.600 C 108.684 109.600,109.826 109.675,110.569 110.300 C 111.399 110.999,111.399 110.999,110.638 110.100 C 109.724 109.020,90.186 108.645,89.785 109.700 M217.300 109.497 L 230.800 109.611 230.800 118.794 L 230.800 127.977 225.599 128.107 L 220.399 128.236 225.699 128.218 L 231.000 128.200 231.000 118.800 L 231.000 109.400 217.400 109.392 L 203.800 109.384 217.300 109.497 M193.793 167.400 C 193.793 192.480,193.841 202.799,193.900 190.331 C 193.959 177.863,193.959 157.343,193.900 144.731 C 193.841 132.119,193.793 142.320,193.793 167.400 M239.909 138.980 C 239.849 147.659,239.931 154.630,240.091 154.470 C 240.472 154.088,240.688 123.200,240.309 123.200 C 240.149 123.200,239.969 130.301,239.909 138.980 M216.195 200.600 C 216.195 238.220,216.242 253.551,216.300 234.668 C 216.357 215.786,216.357 185.006,216.300 166.268 C 216.242 147.531,216.195 162.980,216.195 200.600 M110.454 147.100 C 110.503 148.088,110.527 148.105,110.686 147.269 C 110.804 146.649,111.060 146.414,111.453 146.565 C 111.783 146.692,111.934 146.618,111.797 146.395 C 111.272 145.546,110.400 146.004,110.454 147.100 M110.928 152.000 C 110.928 153.430,111.001 154.015,111.089 153.300 C 111.178 152.585,111.178 151.415,111.089 150.700 C 111.001 149.985,110.928 150.570,110.928 152.000 M111.301 157.000 C 111.305 157.880,111.387 158.193,111.483 157.695 C 111.579 157.198,111.575 156.478,111.475 156.095 C 111.375 155.713,111.296 156.120,111.301 157.000 M111.794 209.800 C 111.794 237.080,111.842 248.181,111.900 234.469 C 111.958 220.757,111.958 198.437,111.900 184.869 C 111.842 171.301,111.794 182.520,111.794 209.800 M239.600 202.720 L 239.800 233.400 239.902 203.023 C 239.959 186.315,239.869 172.509,239.703 172.342 C 239.536 172.176,239.490 185.846,239.600 202.720 M138.800 188.400 C 139.270 189.060,139.744 189.600,139.854 189.600 C 139.964 189.600,139.670 189.060,139.200 188.400 C 138.730 187.740,138.256 187.200,138.146 187.200 C 138.036 187.200,138.330 187.740,138.800 188.400 M194.109 218.000 C 194.109 218.990,194.187 219.395,194.282 218.900 C 194.378 218.405,194.378 217.595,194.282 217.100 C 194.187 216.605,194.109 217.010,194.109 218.000 M194.524 223.400 C 194.526 224.720,194.601 225.212,194.690 224.493 C 194.779 223.774,194.777 222.694,194.686 222.093 C 194.595 221.492,194.522 222.080,194.524 223.400 M261.309 228.000 C 261.309 228.990,261.387 229.395,261.482 228.900 C 261.578 228.405,261.578 227.595,261.482 227.100 C 261.387 226.605,261.309 227.010,261.309 228.000 M195.301 231.400 C 195.305 232.280,195.387 232.593,195.483 232.095 C 195.579 231.598,195.575 230.878,195.475 230.495 C 195.375 230.113,195.296 230.520,195.301 231.400 M261.693 232.000 C 261.693 232.770,261.775 233.085,261.876 232.700 C 261.976 232.315,261.976 231.685,261.876 231.300 C 261.775 230.915,261.693 231.230,261.693 232.000 M240.493 238.000 C 240.493 238.770,240.575 239.085,240.676 238.700 C 240.776 238.315,240.776 237.685,240.676 237.300 C 240.575 236.915,240.493 237.230,240.493 238.000 M80.600 250.383 L 75.000 250.600 74.989 260.200 L 74.977 269.800 75.096 260.300 L 75.214 250.800 80.507 250.794 C 83.418 250.791,86.070 250.613,86.400 250.400 C 86.730 250.187,86.820 250.047,86.600 250.089 C 86.380 250.131,83.680 250.263,80.600 250.383 M289.400 251.258 C 288.652 251.593,288.657 251.606,289.481 251.451 C 289.965 251.360,290.446 251.491,290.549 251.742 C 290.685 252.073,290.746 252.068,290.768 251.724 C 290.815 251.025,290.307 250.852,289.400 251.258 M250.600 259.200 C 251.906 260.520,253.065 261.600,253.175 261.600 C 253.285 261.600,252.306 260.520,251.000 259.200 C 249.694 257.880,248.535 256.800,248.425 256.800 C 248.315 256.800,249.294 257.880,250.600 259.200 M282.300 270.689 C 283.015 270.778,284.185 270.778,284.900 270.689 C 285.615 270.601,285.030 270.528,283.600 270.528 C 282.170 270.528,281.585 270.601,282.300 270.689 " stroke="none" fill="#747474" fill-rule="evenodd"></path><path id="path5" d="M245.700 123.099 C 248.505 123.168,253.095 123.168,255.900 123.099 C 258.705 123.030,256.410 122.974,250.800 122.974 C 245.190 122.974,242.895 123.030,245.700 123.099 M261.381 139.000 C 261.381 147.360,261.434 150.837,261.499 146.726 C 261.564 142.616,261.564 135.776,261.500 131.526 C 261.435 127.277,261.382 130.640,261.381 139.000 M229.900 154.698 C 231.715 154.772,234.685 154.772,236.500 154.698 C 238.315 154.623,236.830 154.563,233.200 154.563 C 229.570 154.563,228.085 154.623,229.900 154.698 M268.525 154.699 C 272.224 154.766,278.164 154.765,281.725 154.699 C 285.286 154.633,282.260 154.579,275.000 154.579 C 267.740 154.579,264.826 154.633,268.525 154.699 M228.480 172.298 C 230.394 172.371,233.634 172.371,235.680 172.298 C 237.726 172.226,236.160 172.166,232.200 172.165 C 228.240 172.165,226.566 172.224,228.480 172.298 M268.500 172.299 C 272.185 172.365,278.215 172.365,281.900 172.299 C 285.585 172.233,282.570 172.179,275.200 172.179 C 267.830 172.179,264.815 172.233,268.500 172.299 M261.389 199.600 C 261.389 214.450,261.439 220.525,261.500 213.100 C 261.561 205.675,261.561 193.525,261.500 186.100 C 261.439 178.675,261.389 184.750,261.389 199.600 M77.705 269.887 C 78.314 269.979,79.214 269.977,79.705 269.882 C 80.197 269.787,79.700 269.711,78.600 269.714 C 77.500 269.717,77.097 269.795,77.705 269.887 M82.900 269.891 C 83.725 269.978,85.075 269.978,85.900 269.891 C 86.725 269.805,86.050 269.734,84.400 269.734 C 82.750 269.734,82.075 269.805,82.900 269.891 " stroke="none" fill="#7c7c7c" fill-rule="evenodd"></path><path id="path6" d="M94.900 109.099 C 97.705 109.168,102.295 109.168,105.100 109.099 C 107.905 109.030,105.610 108.974,100.000 108.974 C 94.390 108.974,92.095 109.030,94.900 109.099 M211.925 109.099 C 215.514 109.166,221.274 109.166,224.725 109.099 C 228.176 109.033,225.240 108.978,218.200 108.978 C 211.160 108.979,208.336 109.033,211.925 109.099 M261.782 138.800 C 261.782 147.270,261.835 150.735,261.899 146.500 C 261.964 142.265,261.964 135.335,261.899 131.100 C 261.835 126.865,261.782 130.330,261.782 138.800 M239.781 139.000 C 239.781 147.360,239.834 150.837,239.899 146.726 C 239.964 142.616,239.964 135.776,239.900 131.526 C 239.835 127.277,239.782 130.640,239.781 139.000 M216.595 201.000 C 216.595 238.840,216.643 254.261,216.700 235.268 C 216.757 216.276,216.757 185.316,216.700 166.468 C 216.642 147.621,216.595 163.160,216.595 201.000 M111.701 156.200 C 111.705 157.080,111.787 157.393,111.883 156.895 C 111.979 156.398,111.975 155.678,111.875 155.295 C 111.775 154.913,111.696 155.320,111.701 156.200 M112.194 211.000 C 112.194 236.960,112.241 247.521,112.300 234.469 C 112.358 221.417,112.358 200.177,112.300 187.269 C 112.241 174.361,112.193 185.040,112.194 211.000 M275.400 172.392 L 261.800 172.600 261.796 200.900 L 261.792 229.200 261.899 201.000 L 262.005 172.800 275.379 172.800 C 283.863 172.800,288.843 172.654,289.000 172.400 C 289.136 172.180,289.192 172.041,289.124 172.092 C 289.056 172.143,282.880 172.278,275.400 172.392 M227.400 172.673 C 233.225 172.961,239.510 172.975,239.339 172.700 C 239.237 172.535,235.968 172.435,232.076 172.477 C 228.184 172.519,226.080 172.608,227.400 172.673 M194.093 223.200 C 194.093 223.970,194.175 224.285,194.276 223.900 C 194.376 223.515,194.376 222.885,194.276 222.500 C 194.175 222.115,194.093 222.430,194.093 223.200 M194.684 231.200 C 194.569 231.639,194.638 232.100,194.838 232.223 C 195.037 232.346,195.200 231.987,195.200 231.424 C 195.200 230.198,194.972 230.099,194.684 231.200 M77.916 250.297 C 79.299 250.375,81.459 250.374,82.716 250.295 C 83.972 250.216,82.840 250.152,80.200 250.153 C 77.560 250.153,76.532 250.218,77.916 250.297 M74.573 260.200 C 74.573 265.480,74.630 267.585,74.699 264.877 C 74.768 262.169,74.768 257.849,74.699 255.277 C 74.629 252.705,74.572 254.920,74.573 260.200 M77.705 270.287 C 78.314 270.379,79.214 270.377,79.705 270.282 C 80.197 270.187,79.700 270.111,78.600 270.114 C 77.500 270.117,77.097 270.195,77.705 270.287 M82.700 270.293 C 83.635 270.377,85.165 270.377,86.100 270.293 C 87.035 270.209,86.270 270.140,84.400 270.140 C 82.530 270.140,81.765 270.209,82.700 270.293 M281.712 271.095 C 282.764 271.177,284.384 271.176,285.312 271.092 C 286.240 271.008,285.380 270.941,283.400 270.942 C 281.420 270.943,280.660 271.012,281.712 271.095 " stroke="none" fill="#bcbcbc" fill-rule="evenodd"></path><path id="path7" d="M89.500 108.832 C 88.837 109.218,88.805 112.872,88.899 177.920 L 88.998 246.600 89.100 178.023 C 89.181 123.771,89.307 109.380,89.701 109.129 C 90.830 108.412,109.674 108.747,110.569 109.500 C 111.399 110.199,111.399 110.199,110.638 109.300 C 109.791 108.299,91.124 107.886,89.500 108.832 M204.871 108.740 C 204.360 108.883,209.908 108.944,217.200 108.875 C 227.685 108.776,230.598 108.860,231.129 109.275 C 231.731 109.746,231.743 109.728,231.251 109.100 C 230.685 108.378,207.302 108.059,204.871 108.740 M231.370 119.000 C 231.371 123.840,231.429 125.765,231.499 123.278 C 231.569 120.791,231.569 116.831,231.498 114.478 C 231.428 112.125,231.370 114.160,231.370 119.000 M196.975 112.100 L 195.800 113.400 197.100 112.225 C 197.815 111.579,198.400 110.994,198.400 110.925 C 198.400 110.616,198.070 110.888,196.975 112.100 M193.393 167.400 C 193.393 192.260,193.441 202.371,193.500 189.869 C 193.559 177.367,193.559 157.027,193.500 144.669 C 193.441 132.311,193.393 142.540,193.393 167.400 M239.865 122.694 C 239.761 122.862,244.549 122.949,250.506 122.887 C 258.963 122.799,261.416 122.887,261.699 123.287 C 261.975 123.678,262.022 123.657,261.897 123.200 C 261.719 122.544,240.263 122.051,239.865 122.694 M222.882 129.096 C 224.358 129.173,226.878 129.173,228.482 129.097 C 230.087 129.021,228.880 128.958,225.800 128.958 C 222.720 128.957,221.407 129.019,222.882 129.096 M111.293 150.400 C 111.293 151.170,111.375 151.485,111.476 151.100 C 111.576 150.715,111.576 150.085,111.476 149.700 C 111.375 149.315,111.293 149.630,111.293 150.400 M111.701 153.400 C 111.705 154.280,111.787 154.593,111.883 154.095 C 111.979 153.598,111.975 152.878,111.875 152.495 C 111.775 152.113,111.696 152.520,111.701 153.400 M228.700 154.298 C 230.735 154.371,234.065 154.371,236.100 154.298 C 238.135 154.225,236.470 154.166,232.400 154.166 C 228.330 154.166,226.665 154.225,228.700 154.298 M268.474 154.299 C 272.145 154.365,278.265 154.365,282.074 154.299 C 285.883 154.234,282.880 154.180,275.400 154.180 C 267.920 154.179,264.803 154.233,268.474 154.299 M224.179 154.910 C 223.641 156.312,224.208 172.536,224.800 172.697 C 225.260 172.823,225.279 172.776,224.885 172.497 C 224.485 172.215,224.395 170.150,224.485 163.267 C 224.598 154.562,224.573 153.883,224.179 154.910 M289.369 163.400 C 289.370 168.020,289.428 169.855,289.499 167.478 C 289.570 165.101,289.569 161.321,289.498 159.078 C 289.427 156.835,289.369 158.780,289.369 163.400 M112.124 161.800 C 112.126 163.120,112.201 163.612,112.290 162.893 C 112.379 162.174,112.377 161.094,112.286 160.493 C 112.195 159.892,112.122 160.480,112.124 161.800 M239.388 199.600 C 239.388 213.570,239.439 219.285,239.500 212.300 C 239.561 205.315,239.561 193.885,239.500 186.900 C 239.439 179.915,239.388 185.630,239.388 199.600 M187.400 220.000 C 187.741 220.660,188.111 221.200,188.221 221.200 C 188.331 221.200,188.141 220.660,187.800 220.000 C 187.459 219.340,187.089 218.800,186.979 218.800 C 186.869 218.800,187.059 219.340,187.400 220.000 M193.714 222.200 C 193.717 223.300,193.795 223.703,193.887 223.095 C 193.979 222.486,193.977 221.586,193.882 221.095 C 193.787 220.603,193.711 221.100,193.714 222.200 M239.348 230.000 C 239.348 232.310,239.414 233.255,239.495 232.100 C 239.576 230.945,239.576 229.055,239.495 227.900 C 239.414 226.745,239.348 227.690,239.348 230.000 M194.315 230.400 C 194.218 231.060,194.287 231.600,194.469 231.600 C 194.651 231.600,194.800 231.060,194.800 230.400 C 194.800 229.740,194.730 229.200,194.645 229.200 C 194.560 229.200,194.412 229.740,194.315 230.400 M239.668 237.400 C 239.662 237.840,239.811 238.560,240.000 239.000 C 240.438 240.019,240.438 238.968,240.000 237.600 C 239.743 236.796,239.677 236.757,239.668 237.400 M265.000 240.400 C 265.341 241.060,265.711 241.600,265.821 241.600 C 265.931 241.600,265.741 241.060,265.400 240.400 C 265.059 239.740,264.689 239.200,264.579 239.200 C 264.469 239.200,264.659 239.740,265.000 240.400 M74.243 250.633 C 73.458 252.677,74.040 270.400,74.892 270.400 C 75.137 270.400,75.112 270.176,74.829 269.834 C 74.490 269.427,74.393 266.576,74.480 259.634 C 74.546 254.335,74.574 249.999,74.543 250.000 C 74.511 250.000,74.376 250.285,74.243 250.633 M284.707 251.090 C 285.426 251.179,286.506 251.177,287.107 251.086 C 287.708 250.995,287.120 250.922,285.800 250.924 C 284.480 250.926,283.988 251.001,284.707 251.090 M291.199 260.681 C 291.090 266.225,291.138 270.623,291.307 270.453 C 291.476 270.284,291.566 265.748,291.507 260.373 L 291.399 250.600 291.199 260.681 M250.400 259.725 C 250.400 259.794,250.985 260.379,251.700 261.025 L 253.000 262.200 251.825 260.900 C 250.730 259.688,250.400 259.416,250.400 259.725 M108.778 266.700 L 107.400 268.200 108.900 266.822 C 110.296 265.538,110.584 265.200,110.278 265.200 C 110.212 265.200,109.537 265.875,108.778 266.700 M258.000 265.396 C 258.000 265.670,260.449 266.884,260.632 266.701 C 260.719 266.614,260.162 266.244,259.395 265.878 C 258.628 265.512,258.000 265.295,258.000 265.396 M206.200 270.000 L 195.800 270.220 206.076 270.310 C 212.595 270.367,216.443 270.254,216.600 270.000 C 216.736 269.780,216.792 269.640,216.724 269.690 C 216.656 269.739,211.920 269.879,206.200 270.000 M90.880 270.298 C 92.794 270.371,96.034 270.371,98.080 270.298 C 100.126 270.226,98.560 270.166,94.600 270.165 C 90.640 270.165,88.966 270.224,90.880 270.298 M277.305 271.087 C 277.914 271.179,278.814 271.177,279.305 271.082 C 279.797 270.987,279.300 270.911,278.200 270.914 C 277.100 270.917,276.697 270.995,277.305 271.087 M287.705 271.087 C 288.314 271.179,289.214 271.177,289.705 271.082 C 290.197 270.987,289.700 270.911,288.600 270.914 C 287.500 270.917,287.097 270.995,287.705 271.087 " stroke="none" fill="#cdcccd" fill-rule="evenodd"></path><path id="path8" d="M314.400 248.393 C 315.830 248.580,317.450 248.850,318.000 248.994 C 318.907 249.231,318.928 249.210,318.231 248.769 C 317.809 248.502,316.189 248.232,314.631 248.168 L 311.800 248.053 314.400 248.393 M309.600 248.800 C 308.805 249.314,309.804 249.314,311.000 248.800 L 311.800 248.456 311.000 248.434 C 310.560 248.422,309.930 248.587,309.600 248.800 M305.480 251.184 C 303.868 252.599,302.176 255.017,301.830 256.400 C 301.693 256.950,301.983 256.590,302.476 255.600 C 302.968 254.610,304.245 252.945,305.312 251.900 C 307.469 249.788,307.573 249.346,305.480 251.184 M321.000 250.252 C 321.220 250.445,322.120 251.232,322.999 252.001 L 324.598 253.400 323.399 252.066 C 322.740 251.332,321.840 250.545,321.400 250.317 C 320.960 250.089,320.780 250.060,321.000 250.252 M325.231 255.258 C 325.720 256.216,326.258 257.450,326.426 258.000 C 326.626 258.654,326.743 258.756,326.766 258.296 C 326.806 257.478,325.288 254.102,324.724 253.753 C 324.513 253.623,324.741 254.300,325.231 255.258 M301.050 258.850 C 300.742 260.389,300.789 262.673,301.154 263.984 C 301.305 264.525,301.429 263.310,301.429 261.284 C 301.429 257.195,301.408 257.061,301.050 258.850 M326.893 261.200 C 326.893 261.970,326.975 262.285,327.076 261.900 C 327.176 261.515,327.176 260.885,327.076 260.500 C 326.975 260.115,326.893 260.430,326.893 261.200 M326.446 264.067 C 326.421 264.434,326.296 265.064,326.170 265.467 C 325.952 266.162,325.963 266.163,326.397 265.487 C 326.648 265.096,326.773 264.466,326.673 264.087 C 326.511 263.468,326.488 263.466,326.446 264.067 M301.830 266.000 C 302.149 267.276,303.676 269.540,305.208 271.007 C 306.915 272.643,306.681 272.025,304.872 270.124 C 304.032 269.241,302.947 267.727,302.462 266.759 C 301.977 265.792,301.693 265.450,301.830 266.000 M324.986 267.700 L 324.352 269.000 325.167 268.000 C 325.952 267.037,326.208 266.400,325.810 266.400 C 325.706 266.400,325.335 266.985,324.986 267.700 M322.085 271.028 C 320.922 272.003,320.139 272.800,320.346 272.800 C 320.553 272.800,321.595 271.997,322.661 271.016 C 325.145 268.730,324.821 268.737,322.085 271.028 M311.115 274.072 C 311.492 274.221,312.790 274.344,314.000 274.344 C 315.210 274.344,316.508 274.221,316.885 274.072 C 317.262 273.922,315.964 273.800,314.000 273.800 C 312.036 273.800,310.738 273.922,311.115 274.072 " stroke="none" fill="#d0acb4" fill-rule="evenodd"></path></g></svg>